<?xml version="1.0" encoding="utf-8"?>
<!-- Generator: Adobe Illustrator 23.0.0, SVG Export Plug-In . SVG Version: 6.00 Build 0)  -->
<svg version="1.1" id="Camada_1" xmlns="http://www.w3.org/2000/svg" xmlns:xlink="http://www.w3.org/1999/xlink" x="0px" y="0px"
	 viewBox="0 0 300 300" style="enable-background:new 0 0 300 300;" xml:space="preserve">
<g>
	<path d="M142.34,142.59c-3.45-0.83-6.48-2.34-9.1-4.55c-2.76-2.21-4-5.93-4.14-9.52c-0.55-14.76,0.14-32,1.93-49.66
		c1.38-11.86-1.93-10.62-1.93-10.62c-7.17,2.35-11.73,38.07-12.14,48.14c-0.14,1.93-0.14,4.28,0.14,6.07
		c0.14,0.55-0.41,1.1-0.97,1.1c-11.17-0.41-11.86-6.9-12-9.24c-0.28-7.31,0.55-23.17,1.79-35.45c1.38-11.86-1.93-10.62-1.93-10.62
		c-4,0.97-7.59,17.1-9.93,30.21c-1.24,9.66-3.59,24.55-6.9,34.62c-0.41,1.38-1.24,2.62-2.48,3.45c-1.52,1.1-3.72,2.35-6.9,2.48
		c-0.83,0.14-1.38-0.69-1.24-1.52c0.69-2.76,2.35-10.35,4.55-27.04c3.17-23.86,3.03-53.24-2.35-55.59
		c-4.97-2.21-8.28,12.55-7.72,19.31c0,0.69-0.69,1.24-1.38,0.97c-2.07-0.83-5.52-3.03-6.62-7.72c-0.28-1.52-0.14-3.17,0.41-4.55
		c1.52-4,5.93-12.28,16-11.73s15.17,8.41,16,22.62c3.03-9.1,6.62-16,11.04-16.69c0,0,6.35-1.24,8.83,6.62c0,0,2.21,6.35,1.93,17.79
		c3.03-12.41,7.72-23.17,14.35-24.42c0,0,6.35-1.24,8.83,6.62c0,0,2.34,7.04,1.79,19.45c-0.83,21.1-0.14,41.24,1.93,57.52
		C144.27,141.77,143.3,142.73,142.34,142.59z"/>
	<path d="M179.86,98.31c-0.69,1.93-1.52,3.72-2.48,5.24c0.14,2.21,0.14,4.69-0.14,7.31c-1.79,15.86-12.14,18.21-12.14,18.21
		c-13.52,3.03-19.31-10.62-17.1-22.62c0,0,0.55-3.31,2.62-6.35c-0.28-6.62,5.1-13.52,11.59-13.93c6.76-0.55,12.55,4.41,14.62,13.24
		c0.97-1.66,1.52-3.03,1.93-3.86c0-0.28,0.41-0.41,0.69-0.14C179.99,96.25,180.13,97.35,179.86,98.31z M171.72,108.8
		c-4.14,2.34-9.1,2.62-13.1,1.24c-0.41,4.41-0.97,16.14,5.79,14.62c0.96-0.28,4.69-0.69,6.48-10.21
		C171.44,112.25,171.72,108.8,171.72,108.8z M159.03,95.14c0.83,0,1.79,0,2.9,0.14c0.55,0.14,0.97,0.83,0.55,1.52
		c-0.83,1.38-2.07,4-3.03,7.31c1.79,2.35,4.83,2.62,4.83,2.62c3.04,0.41,5.52-0.41,7.59-1.93c-0.14-9.79-4.41-14.07-8.28-13.79
		C161.79,91.14,159.99,92.66,159.03,95.14z"/>
	<path d="M221.23,73.21c-1.79-1.38-9.1-1.66-10.62-1.66c-2.9,0-5.66,0-8.55-0.14c-2.07,0-4.14,0-6.21-0.14
		c-1.66,14.76-2.62,29.79-2.76,44.42c0,3.45-0.14,7.03,0.28,6.62c4.14-4.14,8-12.41,9.1-14.62c0.14-0.28,0.55-0.55,0.97-0.41h0.14
		c0.83,0.28,1.24,1.24,0.97,2.07c-6.35,13.79-11.17,19.45-15.45,20.14c-5.38,0.69-6.21-9.1-6.21-9.1
		c-1.66-14.21-1.1-36.69-0.69-49.11c-2.34,0.14-4.69,0.28-7.03,0.55c-5.79,0.97-3.31-6.07-1.52-4.69c1.38,0.97,5.93,1.38,8.69,1.52
		c0-0.83,0-1.66,0-2.34c0.14-3.17,1.66-6.07,4.28-7.86c3.31-2.35,7.04-3.31,9.24-3.59c0.97-0.28,1.79,0.55,1.66,1.52
		c-0.41,4.14-0.97,8.28-1.38,12.41c7.86,0.14,15.72,0.55,23.45-0.28C225.37,67.55,222.89,74.45,221.23,73.21z"/>
	<path d="M233.51,98.31c-0.69,1.93-1.52,3.72-2.48,5.24c0.14,2.21,0.14,4.69-0.14,7.31c-1.79,15.86-12.14,18.21-12.14,18.21
		c-13.52,3.03-19.31-10.62-17.1-22.62c0,0,0.55-3.31,2.62-6.35c-0.28-6.62,5.1-13.52,11.59-13.93c6.76-0.55,12.55,4.41,14.62,13.24
		c0.97-1.66,1.52-3.03,1.93-3.86c0-0.28,0.41-0.41,0.69-0.14C233.65,96.25,233.78,97.35,233.51,98.31z M225.37,108.8
		c-4.14,2.34-9.1,2.62-13.1,1.24c-0.41,4.41-0.96,16.14,5.79,14.62c0.97-0.28,4.69-0.69,6.48-10.21
		C225.09,112.25,225.37,108.8,225.37,108.8z M212.68,95.14c0.83,0,1.79,0,2.9,0.14c0.55,0.14,0.97,0.83,0.55,1.52
		c-0.83,1.38-2.07,4-3.03,7.31c1.79,2.35,4.83,2.62,4.83,2.62c3.03,0.41,5.52-0.41,7.59-1.93c-0.14-9.79-4.41-14.07-8.28-13.79
		C215.44,91.14,213.65,92.66,212.68,95.14z"/>
	<path d="M56.06,165.79c-0.14-5.38-0.28-10.62-0.55-15.45c-0.14-1.24,0.83-2.21,1.79-1.93c3.45,1.1,6.48,2.76,8.97,5.1
		c2.48,2.35,3.59,6.21,3.45,9.79c0,4.28-0.28,8.83-0.55,13.52c3.45,0,7.17,0.14,10.9,0.69c0.83,0.14,1.52,0.83,1.66,1.66
		c0.14,0.97-0.83,1.79-1.79,1.79c-2.21-0.28-6.07-0.69-11.17-0.41c-0.97,9.79-5.66,44.42-24.28,58.35c0,0-12.42,10.48-27.59,5.52
		c-13.66-4.55-12.69-27.59-0.14-42.49c7.31-8.69,21.24-19.31,39.04-23.45C56.2,172.27,56.06,165.79,56.06,165.79z M55.51,182.48
		c-9.1,2.07-19.59,6.34-29.24,14.62c0,0-13.38,10.76-15.04,27.45c-1.1,10.9,4.97,13.93,4.97,13.93c10.48,6.07,21.52-4.69,21.52-4.69
		C50.54,221.93,54.4,194.62,55.51,182.48z M53.58,139.58c0-3.17,3.59-5.79,7.86-5.79c4.41,0,7.86,2.62,7.86,5.79
		c0,3.17-3.45,5.79-7.86,5.79C57.16,145.37,53.58,142.75,53.58,139.58z"/>
	<path d="M120.2,195.44c-8.83,19.31-14.9,22.48-20.28,19.17c-6.07-3.59-4.97-21.24-4.14-28.83c0.41-4,0.14-5.38-0.83-5.52
		c-4.28-0.28-7.31,13.66-7.86,19.86c-0.14,5.24-0.14,10.48,0,15.45c0,1.1-0.97,1.93-2.07,1.79c-7.72-0.83-8.14-8.69-8.14-8.69
		c-1.66-14.07-1.24-40.69-0.83-51.04c0.14-3.17,1.79-6.07,4.41-7.72c3.31-2.34,7.03-3.17,9.24-3.59c0.97-0.14,1.79,0.69,1.66,1.66
		c-1.66,11.73-2.76,23.45-3.45,34.62c2.48-5.38,6.48-10.35,12.41-10.35c11.17,0,9.1,13.93,9.1,13.93
		c-0.83,10.21-1.52,21.93-0.28,22.21c4.14-4.14,8-12.41,8.97-14.62c0.14-0.28,0.55-0.55,0.97-0.41c0,0,0.14,0,0.28,0
		C120.2,193.65,120.61,194.62,120.2,195.44z"/>
	<path d="M149.17,184.41c-0.69,1.93-1.52,3.72-2.48,5.24c0.14,2.21,0.14,4.69-0.14,7.31c-1.79,15.86-12.14,18.21-12.14,18.21
		c-13.52,3.04-19.31-10.62-17.1-22.62c0,0,0.55-3.31,2.62-6.34c-0.28-6.62,5.1-13.52,11.59-13.93c6.76-0.55,12.55,4.41,14.62,13.24
		c0.97-1.65,1.52-3.03,1.93-3.86c0-0.28,0.41-0.41,0.69-0.14C149.3,182.34,149.44,183.44,149.17,184.41z M141.03,194.89
		c-4.14,2.34-9.1,2.62-13.1,1.24c-0.41,4.41-0.97,16.14,5.79,14.62c0.97-0.28,4.69-0.69,6.48-10.21
		C140.75,198.34,141.03,194.89,141.03,194.89z M128.34,181.24c0.83,0,1.79,0,2.9,0.14c0.55,0.14,0.97,0.83,0.55,1.52
		c-0.83,1.38-2.07,4-3.03,7.31c1.79,2.34,4.83,2.62,4.83,2.62c3.03,0.41,5.52-0.41,7.59-1.93c-0.14-9.79-4.41-14.07-8.28-13.79
		C131.09,177.24,129.3,178.75,128.34,181.24z"/>
	<path d="M195.65,195.44c-8.83,19.31-14.76,22.48-20.14,19.17c-6.21-3.59-4.97-21.24-4.28-28.83c0.55-4,0.14-5.38-0.83-5.52
		c-4-0.28-6.62,11.86-7.17,18.76c-0.28,6.07-0.41,12.14-0.41,16.14c0,1.1-0.83,1.79-1.79,1.79c-7.31-0.55-9.52-8-9.79-18.9
		c-0.28-6.21,0-12.83,0.28-16.41c0.14-2.35,1.24-4.41,3.03-5.93c2.07-1.66,4.41-3.59,8.97-3.72c0.55,0,1.1,0.41,1.1,1.1
		c-0.14,1.24-0.28,4.41-0.55,8.69c2.48-5.1,6.21-9.52,11.86-9.52c11.04,0,8.97,13.93,8.97,13.93c-0.69,10.21-1.38,21.93-0.28,22.21
		c4.14-4.14,8-12.41,9.1-14.62c0.14-0.28,0.55-0.55,0.83-0.41c0.14,0,0.14,0,0.28,0C195.65,193.65,196.06,194.62,195.65,195.44z"/>
	<path d="M203.37,165.37c-2.9,0-4.41,3.72-4.83,9.24c0,0-0.69,5.93,3.31,12.69c1.52,2.48,3.72,6.21,6.07,10.76
		c3.45-1.66,7.04-3.03,10.76-4c0.83-0.14,1.52,0.28,1.79,1.1c0.14,0.83-0.28,1.66-1.24,1.93c-4.97,1.1-9.93,3.72-9.93,3.72
		c5.93,11.73,11.59,27.59,5.66,40.14c-3.31,8.14-10.48,9.52-12.83,9.66c-3.45,0.55-6.9-0.14-9.79-2.07
		c-5.24-3.45-7.17-9.52-7.31-15.59c0,0-1.24-15.17,12.83-28c-5.24-12.28-5.66-20.55-5.79-21.79c-0.14-3.72,0.28-7.59,0.69-9.52
		c0.83-4.83,3.86-10.07,9.1-10.48c5.93-0.41,9.93,6.07,9.66,11.31c0,0-0.14,2.35-2.07,2.48c-3.17,0.14-2.9-5.38-2.9-5.38
		S206.68,165.37,203.37,165.37z M188.2,235.45c1.93,11.86,11.72,11.04,11.72,11.04c11.04-1.24,6.48-23.04-0.69-38.62
		c-1.79,1.52-4.14,4-5.93,6.62c-2.48,4-4.14,8.28-4.83,12.83C188.47,227.31,187.78,231.45,188.2,235.45z"/>
	<path d="M249.44,184.41c-0.69,1.93-1.52,3.72-2.48,5.24c0.14,2.21,0.14,4.69-0.14,7.31c-1.79,15.86-12.14,18.21-12.14,18.21
		c-13.52,3.04-19.31-10.62-17.1-22.62c0,0,0.55-3.31,2.62-6.34c-0.28-6.62,5.1-13.52,11.59-13.93c6.76-0.55,12.55,4.41,14.62,13.24
		c0.97-1.65,1.52-3.03,1.93-3.86c0-0.28,0.41-0.41,0.69-0.14C249.58,182.34,249.72,183.44,249.44,184.41z M241.3,194.89
		c-4.14,2.34-9.1,2.62-13.1,1.24c-0.41,4.41-0.97,16.14,5.79,14.62c0.96-0.28,4.69-0.69,6.48-10.21
		C241.03,198.34,241.3,194.89,241.3,194.89z M228.61,181.24c0.83,0,1.79,0,2.9,0.14c0.55,0.14,0.97,0.83,0.55,1.52
		c-0.83,1.38-2.07,4-3.03,7.31c1.79,2.34,4.83,2.62,4.83,2.62c3.04,0.41,5.52-0.41,7.59-1.93c-0.14-9.79-4.41-14.07-8.28-13.79
		C231.37,177.24,229.58,178.75,228.61,181.24z"/>
	<path d="M295.92,195.44c-8.83,19.31-14.76,22.48-20.14,19.17c-6.21-3.59-4.97-21.24-4.28-28.83c0.55-4,0.14-5.38-0.83-5.52
		c-4-0.28-6.62,11.86-7.17,18.76c-0.28,6.07-0.41,12.14-0.41,16.14c0,1.1-0.83,1.79-1.79,1.79c-7.31-0.55-9.52-8-9.79-18.9
		c-0.28-6.21,0-12.83,0.28-16.41c0.14-2.35,1.24-4.41,3.03-5.93c2.07-1.66,4.41-3.59,8.97-3.72c0.55,0,1.1,0.41,1.1,1.1
		c-0.14,1.24-0.28,4.41-0.55,8.69c2.48-5.1,6.21-9.52,11.86-9.52c11.04,0,8.97,13.93,8.97,13.93c-0.69,10.21-1.38,21.93-0.28,22.21
		c4.14-4.14,8-12.41,9.1-14.62c0.14-0.28,0.55-0.55,0.83-0.41c0.14,0,0.14,0,0.28,0C295.92,193.65,296.34,194.62,295.92,195.44z"/>
</g>
</svg>
