<?xml version="1.0" encoding="utf-8"?>
<!-- Generator: Adobe Illustrator 23.0.0, SVG Export Plug-In . SVG Version: 6.00 Build 0)  -->
<svg version="1.1" id="Camada_1" xmlns="http://www.w3.org/2000/svg" xmlns:xlink="http://www.w3.org/1999/xlink" x="0px" y="0px"
	 viewBox="0 0 300 300" style="enable-background:new 0 0 300 300;" xml:space="preserve">
<style type="text/css">
	.st0{fill:#FFFFFF;}
</style>
<g>
	<path class="st0" d="M142.34,142.59c-3.45-0.83-6.48-2.34-9.1-4.55c-2.76-2.21-4-5.93-4.14-9.52c-0.55-14.76,0.14-32,1.93-49.66
		c1.38-11.86-1.93-10.62-1.93-10.62c-7.17,2.35-11.73,38.07-12.14,48.14c-0.14,1.93-0.14,4.28,0.14,6.07
		c0.14,0.55-0.41,1.1-0.97,1.1c-11.17-0.41-11.86-6.9-12-9.24c-0.28-7.31,0.55-23.17,1.79-35.45c1.38-11.86-1.93-10.62-1.93-10.62
		c-4,0.97-7.59,17.1-9.93,30.21c-1.24,9.66-3.59,24.55-6.9,34.62c-0.41,1.38-1.24,2.62-2.48,3.45c-1.52,1.1-3.72,2.35-6.9,2.48
		c-0.83,0.14-1.38-0.69-1.24-1.52c0.69-2.76,2.35-10.35,4.55-27.04c3.17-23.86,3.03-53.24-2.35-55.59
		c-4.97-2.21-8.28,12.55-7.72,19.31c0,0.69-0.69,1.24-1.38,0.97c-2.07-0.83-5.52-3.03-6.62-7.72c-0.28-1.52-0.14-3.17,0.41-4.55
		c1.52-4,5.93-12.28,16-11.73s15.17,8.41,16,22.62c3.03-9.1,6.62-16,11.04-16.69c0,0,6.35-1.24,8.83,6.62c0,0,2.21,6.35,1.93,17.79
		c3.03-12.41,7.72-23.17,14.35-24.42c0,0,6.35-1.24,8.83,6.62c0,0,2.34,7.04,1.79,19.45c-0.83,21.1-0.14,41.24,1.93,57.52
		C144.27,141.77,143.3,142.73,142.34,142.59z"/>
	<path class="st0" d="M179.86,98.31c-0.69,1.93-1.52,3.72-2.48,5.24c0.14,2.21,0.14,4.69-0.14,7.31
		c-1.79,15.86-12.14,18.21-12.14,18.21c-13.52,3.03-19.31-10.62-17.1-22.62c0,0,0.55-3.31,2.62-6.35
		c-0.28-6.62,5.1-13.52,11.59-13.93c6.76-0.55,12.55,4.41,14.62,13.24c0.97-1.66,1.52-3.03,1.93-3.86c0-0.28,0.41-0.41,0.69-0.14
		C179.99,96.25,180.13,97.35,179.86,98.31z M171.72,108.8c-4.14,2.34-9.1,2.62-13.1,1.24c-0.41,4.41-0.97,16.14,5.79,14.62
		c0.96-0.28,4.69-0.69,6.48-10.21C171.44,112.25,171.72,108.8,171.72,108.8z M159.03,95.14c0.83,0,1.79,0,2.9,0.14
		c0.55,0.14,0.97,0.83,0.55,1.52c-0.83,1.38-2.07,4-3.03,7.31c1.79,2.35,4.83,2.62,4.83,2.62c3.04,0.41,5.52-0.41,7.59-1.93
		c-0.14-9.79-4.41-14.07-8.28-13.79C161.79,91.14,159.99,92.66,159.03,95.14z"/>
	<path class="st0" d="M221.23,73.21c-1.79-1.38-9.1-1.66-10.62-1.66c-2.9,0-5.66,0-8.55-0.14c-2.07,0-4.14,0-6.21-0.14
		c-1.66,14.76-2.62,29.79-2.76,44.42c0,3.45-0.14,7.03,0.28,6.62c4.14-4.14,8-12.41,9.1-14.62c0.14-0.28,0.55-0.55,0.97-0.41h0.14
		c0.83,0.28,1.24,1.24,0.97,2.07c-6.35,13.79-11.17,19.45-15.45,20.14c-5.38,0.69-6.21-9.1-6.21-9.1
		c-1.66-14.21-1.1-36.69-0.69-49.11c-2.34,0.14-4.69,0.28-7.03,0.55c-5.79,0.97-3.31-6.07-1.52-4.69c1.38,0.97,5.93,1.38,8.69,1.52
		c0-0.83,0-1.66,0-2.34c0.14-3.17,1.66-6.07,4.28-7.86c3.31-2.35,7.04-3.31,9.24-3.59c0.97-0.28,1.79,0.55,1.66,1.52
		c-0.41,4.14-0.97,8.28-1.38,12.41c7.86,0.14,15.72,0.55,23.45-0.28C225.37,67.55,222.89,74.45,221.23,73.21z"/>
	<path class="st0" d="M233.51,98.31c-0.69,1.93-1.52,3.72-2.48,5.24c0.14,2.21,0.14,4.69-0.14,7.31
		c-1.79,15.86-12.14,18.21-12.14,18.21c-13.52,3.03-19.31-10.62-17.1-22.62c0,0,0.55-3.31,2.62-6.35
		c-0.28-6.62,5.1-13.52,11.59-13.93c6.76-0.55,12.55,4.41,14.62,13.24c0.97-1.66,1.52-3.03,1.93-3.86c0-0.28,0.41-0.41,0.69-0.14
		C233.65,96.25,233.78,97.35,233.51,98.31z M225.37,108.8c-4.14,2.34-9.1,2.62-13.1,1.24c-0.41,4.41-0.96,16.14,5.79,14.62
		c0.97-0.28,4.69-0.69,6.48-10.21C225.09,112.25,225.37,108.8,225.37,108.8z M212.68,95.14c0.83,0,1.79,0,2.9,0.14
		c0.55,0.14,0.97,0.83,0.55,1.52c-0.83,1.38-2.07,4-3.03,7.31c1.79,2.35,4.83,2.62,4.83,2.62c3.03,0.41,5.52-0.41,7.59-1.93
		c-0.14-9.79-4.41-14.07-8.28-13.79C215.44,91.14,213.65,92.66,212.68,95.14z"/>
	<path class="st0" d="M56.06,165.79c-0.14-5.38-0.28-10.62-0.55-15.45c-0.14-1.24,0.83-2.21,1.79-1.93c3.45,1.1,6.48,2.76,8.97,5.1
		c2.48,2.35,3.59,6.21,3.45,9.79c0,4.28-0.28,8.83-0.55,13.52c3.45,0,7.17,0.14,10.9,0.69c0.83,0.14,1.52,0.83,1.66,1.66
		c0.14,0.97-0.83,1.79-1.79,1.79c-2.21-0.28-6.07-0.69-11.17-0.41c-0.97,9.79-5.66,44.42-24.28,58.35c0,0-12.42,10.48-27.59,5.52
		c-13.66-4.55-12.69-27.59-0.14-42.49c7.31-8.69,21.24-19.31,39.04-23.45C56.2,172.27,56.06,165.79,56.06,165.79z M55.51,182.48
		c-9.1,2.07-19.59,6.34-29.24,14.62c0,0-13.38,10.76-15.04,27.45c-1.1,10.9,4.97,13.93,4.97,13.93c10.48,6.07,21.52-4.69,21.52-4.69
		C50.54,221.93,54.4,194.62,55.51,182.48z M53.58,139.58c0-3.17,3.59-5.79,7.86-5.79c4.41,0,7.86,2.62,7.86,5.79
		c0,3.17-3.45,5.79-7.86,5.79C57.16,145.37,53.58,142.75,53.58,139.58z"/>
	<path class="st0" d="M120.2,195.44c-8.83,19.31-14.9,22.48-20.28,19.17c-6.07-3.59-4.97-21.24-4.14-28.83
		c0.41-4,0.14-5.38-0.83-5.52c-4.28-0.28-7.31,13.66-7.86,19.86c-0.14,5.24-0.14,10.48,0,15.45c0,1.1-0.97,1.93-2.07,1.79
		c-7.72-0.83-8.14-8.69-8.14-8.69c-1.66-14.07-1.24-40.69-0.83-51.04c0.14-3.17,1.79-6.07,4.41-7.72c3.31-2.34,7.03-3.17,9.24-3.59
		c0.97-0.14,1.79,0.69,1.66,1.66c-1.66,11.73-2.76,23.45-3.45,34.62c2.48-5.38,6.48-10.35,12.41-10.35c11.17,0,9.1,13.93,9.1,13.93
		c-0.83,10.21-1.52,21.93-0.28,22.21c4.14-4.14,8-12.41,8.97-14.62c0.14-0.28,0.55-0.55,0.97-0.41c0,0,0.14,0,0.28,0
		C120.2,193.65,120.61,194.62,120.2,195.44z"/>
	<path class="st0" d="M149.17,184.41c-0.69,1.93-1.52,3.72-2.48,5.24c0.14,2.21,0.14,4.69-0.14,7.31
		c-1.79,15.86-12.14,18.21-12.14,18.21c-13.52,3.04-19.31-10.62-17.1-22.62c0,0,0.55-3.31,2.62-6.34
		c-0.28-6.62,5.1-13.52,11.59-13.93c6.76-0.55,12.55,4.41,14.62,13.24c0.97-1.65,1.52-3.03,1.93-3.86c0-0.28,0.41-0.41,0.69-0.14
		C149.3,182.34,149.44,183.44,149.17,184.41z M141.03,194.89c-4.14,2.34-9.1,2.62-13.1,1.24c-0.41,4.41-0.97,16.14,5.79,14.62
		c0.97-0.28,4.69-0.69,6.48-10.21C140.75,198.34,141.03,194.89,141.03,194.89z M128.34,181.24c0.83,0,1.79,0,2.9,0.14
		c0.55,0.14,0.97,0.83,0.55,1.52c-0.83,1.38-2.07,4-3.03,7.31c1.79,2.34,4.83,2.62,4.83,2.62c3.03,0.41,5.52-0.41,7.59-1.93
		c-0.14-9.79-4.41-14.07-8.28-13.79C131.09,177.24,129.3,178.75,128.34,181.24z"/>
	<path class="st0" d="M195.65,195.44c-8.83,19.31-14.76,22.48-20.14,19.17c-6.21-3.59-4.97-21.24-4.28-28.83
		c0.55-4,0.14-5.38-0.83-5.52c-4-0.28-6.62,11.86-7.17,18.76c-0.28,6.07-0.41,12.14-0.41,16.14c0,1.1-0.83,1.79-1.79,1.79
		c-7.31-0.55-9.52-8-9.79-18.9c-0.28-6.21,0-12.83,0.28-16.41c0.14-2.35,1.24-4.41,3.03-5.93c2.07-1.66,4.41-3.59,8.97-3.72
		c0.55,0,1.1,0.41,1.1,1.1c-0.14,1.24-0.28,4.41-0.55,8.69c2.48-5.1,6.21-9.52,11.86-9.52c11.04,0,8.97,13.93,8.97,13.93
		c-0.69,10.21-1.38,21.93-0.28,22.21c4.14-4.14,8-12.41,9.1-14.62c0.14-0.28,0.55-0.55,0.83-0.41c0.14,0,0.14,0,0.28,0
		C195.65,193.65,196.06,194.62,195.65,195.44z"/>
	<path class="st0" d="M203.37,165.37c-2.9,0-4.41,3.72-4.83,9.24c0,0-0.69,5.93,3.31,12.69c1.52,2.48,3.72,6.21,6.07,10.76
		c3.45-1.66,7.04-3.03,10.76-4c0.83-0.14,1.52,0.28,1.79,1.1c0.14,0.83-0.28,1.66-1.24,1.93c-4.97,1.1-9.93,3.72-9.93,3.72
		c5.93,11.73,11.59,27.59,5.66,40.14c-3.31,8.14-10.48,9.52-12.83,9.66c-3.45,0.55-6.9-0.14-9.79-2.07
		c-5.24-3.45-7.17-9.52-7.31-15.59c0,0-1.24-15.17,12.83-28c-5.24-12.28-5.66-20.55-5.79-21.79c-0.14-3.72,0.28-7.59,0.69-9.52
		c0.83-4.83,3.86-10.07,9.1-10.48c5.93-0.41,9.93,6.07,9.66,11.31c0,0-0.14,2.35-2.07,2.48c-3.17,0.14-2.9-5.38-2.9-5.38
		S206.68,165.37,203.37,165.37z M188.2,235.45c1.93,11.86,11.72,11.04,11.72,11.04c11.04-1.24,6.48-23.04-0.69-38.62
		c-1.79,1.52-4.14,4-5.93,6.62c-2.48,4-4.14,8.28-4.83,12.83C188.47,227.31,187.78,231.45,188.2,235.45z"/>
	<path class="st0" d="M249.44,184.41c-0.69,1.93-1.52,3.72-2.48,5.24c0.14,2.21,0.14,4.69-0.14,7.31
		c-1.79,15.86-12.14,18.21-12.14,18.21c-13.52,3.04-19.31-10.62-17.1-22.62c0,0,0.55-3.31,2.62-6.34
		c-0.28-6.62,5.1-13.52,11.59-13.93c6.76-0.55,12.55,4.41,14.62,13.24c0.97-1.65,1.52-3.03,1.93-3.86c0-0.28,0.41-0.41,0.69-0.14
		C249.58,182.34,249.72,183.44,249.44,184.41z M241.3,194.89c-4.14,2.34-9.1,2.62-13.1,1.24c-0.41,4.41-0.97,16.14,5.79,14.62
		c0.96-0.28,4.69-0.69,6.48-10.21C241.03,198.34,241.3,194.89,241.3,194.89z M228.61,181.24c0.83,0,1.79,0,2.9,0.14
		c0.55,0.14,0.97,0.83,0.55,1.52c-0.83,1.38-2.07,4-3.03,7.31c1.79,2.34,4.83,2.62,4.83,2.62c3.04,0.41,5.52-0.41,7.59-1.93
		c-0.14-9.79-4.41-14.07-8.28-13.79C231.37,177.24,229.58,178.75,228.61,181.24z"/>
	<path class="st0" d="M295.92,195.44c-8.83,19.31-14.76,22.48-20.14,19.17c-6.21-3.59-4.97-21.24-4.28-28.83
		c0.55-4,0.14-5.38-0.83-5.52c-4-0.28-6.62,11.86-7.17,18.76c-0.28,6.07-0.41,12.14-0.41,16.14c0,1.1-0.83,1.79-1.79,1.79
		c-7.31-0.55-9.52-8-9.79-18.9c-0.28-6.21,0-12.83,0.28-16.41c0.14-2.35,1.24-4.41,3.03-5.93c2.07-1.66,4.41-3.59,8.97-3.72
		c0.55,0,1.1,0.41,1.1,1.1c-0.14,1.24-0.28,4.41-0.55,8.69c2.48-5.1,6.21-9.52,11.86-9.52c11.04,0,8.97,13.93,8.97,13.93
		c-0.69,10.21-1.38,21.93-0.28,22.21c4.14-4.14,8-12.41,9.1-14.62c0.14-0.28,0.55-0.55,0.83-0.41c0.14,0,0.14,0,0.28,0
		C295.92,193.65,296.34,194.62,295.92,195.44z"/>
</g>
<g>
	<path class="st0" d="M338.16,126.22c-0.05,0.1-0.12,0.17-0.22,0.22c-0.42,0.25-1.12,0.54-2.01,0.65c-0.25,0.02-0.47-0.07-0.61-0.23
		c-0.04-0.04-0.01-0.1,0.04-0.1c0.08-0.02,0.17-0.04,0.26-0.06c-0.05-0.04-0.1-0.06-0.13-0.1c-0.24-0.2-0.35-0.53-0.36-0.84
		c-0.06-1.71,0.06-3.85,0.38-5.9c0.06-0.4,0.34-0.82,0.79-0.82c0.1-0.01,0.17,0.1,0.16,0.2c-0.28,2.57-0.28,5.17-0.07,7.2
		c0.49-0.19,1.03-0.49,1.6-0.95c0.07-0.06,0.17-0.04,0.22,0.04C338.33,125.75,338.29,126,338.16,126.22z"/>
	<path class="st0" d="M343.98,124.11c-0.77,1.68-1.36,2.03-1.76,1.67c-0.95-0.83-0.41-3.09-0.23-3.79
		c-0.16-0.02-0.32-0.08-0.46-0.16c0,0,0.14,1.43-0.94,1.99c0,0.26,0,0.34-0.02,0.54c-0.17,1.27-1.04,1.46-1.04,1.46
		c-1.18,0.26-1.68-0.92-1.49-1.97c0,0,0.06-0.29,0.24-0.55c-0.04-0.58,0.44-1.18,1.01-1.22c0.76-0.06,1.13,0.58,1.26,1.35
		c0.85-0.65,0.47-1.69,0.47-1.69s-0.42-0.54-0.17-0.76c0.26-0.22,0.34-0.05,0.48,0.18c0,0,0.07,0.1,0.11,0.22
		c0.01,0.02,0.31,0.32,1.09,0.42c0.38,0.05,0.62,0.44,0.55,0.83c-0.18,0.96-0.43,2.54-0.07,2.6c0.37-0.36,0.71-1.08,0.79-1.27
		c0.01-0.02,0.05-0.05,0.08-0.04h0.01C343.98,123.95,344.01,124.03,343.98,124.11z M340.12,124.06c-0.37,0.2-0.79,0.23-1.15,0.11
		c-0.04,0.38-0.07,1.4,0.52,1.27c0.08-0.02,0.4-0.06,0.56-0.89C340.08,124.35,340.12,124.06,340.12,124.06z M340.1,123.66
		c-0.02-0.85-0.37-1.18-0.7-1.15c-0.16,0.01-0.31,0.14-0.41,0.36c0.08,0,0.17,0,0.25,0.01c0.06,0.01,0.1,0.07,0.06,0.13
		c-0.07,0.12-0.19,0.35-0.26,0.64C339.05,123.65,339.45,123.99,340.1,123.66z"/>
	<path class="st0" d="M346.98,124.11c-0.17,0.38-0.34,0.7-0.48,0.94c0,0-0.65,1.15-1.76,0.8c-0.61-0.19-1.33-1.19-0.96-2.46
		c0.36-1.26,1.24-1.28,1.24-1.28c0.4-0.04,0.67,0.11,0.84,0.29c0,0,0.38,0.36,0.16,0.89c0,0-0.28,0.76-1.37,0.59
		c0,0.05-0.01,0.1-0.01,0.14c0,0-0.13,1.43,0.62,1.51c0.54,0.06,1.04-0.64,1.04-0.64c0.24-0.36,0.44-0.78,0.5-0.92
		c0.01-0.02,0.05-0.05,0.08-0.04c0.01,0,0.01,0,0.02,0C346.98,123.95,347.02,124.03,346.98,124.11z M344.7,123.59
		c0.28,0.05,0.74,0.02,1-0.31c0.3-0.42,0.06-0.68,0.06-0.68C345.53,122.38,344.92,122.81,344.7,123.59z"/>
	<path class="st0" d="M349.03,125.47c-0.66,0.04-0.7-0.79-0.7-0.79c-0.06-0.54-0.02-1.04-0.01-1.42c0.05-0.35,0.01-0.47-0.07-0.48
		c-0.22-0.02-0.49,1.18-0.53,1.74c-0.02,0.49-0.04,0.97-0.04,1.29c0,0.1-0.07,0.16-0.16,0.16c-0.62-0.05-0.83-0.7-0.84-1.64
		c-0.04-0.54-0.01-1.12,0.01-1.43c0.02-0.2,0.12-0.38,0.26-0.52c0.18-0.14,0.38-0.31,0.78-0.32c0.06,0,0.1,0.04,0.1,0.1
		c-0.01,0.1-0.02,0.31-0.04,0.61c0.19-0.37,0.48-0.7,0.92-0.7c0.54,0,0.72,0.38,0.78,0.72c0.19-0.38,0.48-0.72,0.92-0.72
		c0.97,0,0.79,1.22,0.79,1.22c-0.07,0.89-0.13,1.91-0.02,1.93c0.36-0.36,0.7-1.08,0.78-1.27c0.01-0.02,0.05-0.05,0.08-0.04
		c0.01,0,0.01,0,0.02,0c0.07,0.02,0.11,0.11,0.07,0.18c-0.77,1.68-1.28,1.94-1.76,1.67c-0.53-0.32-0.42-1.86-0.36-2.51
		c0.05-0.35,0.01-0.47-0.07-0.48c-0.23-0.02-0.52,1.24-0.54,1.77c0,0,0.01,0.08-0.01,0.24C349.4,125.03,349.32,125.45,349.03,125.47
		z"/>
	<path class="st0" d="M357.04,124.11c-0.77,1.68-1.29,1.96-1.76,1.67c-0.53-0.31-0.41-2.11-0.35-2.76c0.02-0.2,0.12-0.4,0.29-0.53
		c0.18-0.14,0.47-0.29,0.88-0.3c0.05,0,0.1,0.05,0.1,0.1c-0.05,0.52-0.25,2.91-0.11,2.95c0.36-0.36,0.7-1.08,0.78-1.27
		c0.01-0.02,0.05-0.05,0.08-0.04c0.01,0,0.01,0,0.02,0C357.04,123.95,357.07,124.03,357.04,124.11z M355.18,121.49
		c0-0.23,0.25-0.41,0.56-0.41c0.3,0,0.55,0.18,0.55,0.41c0,0.22-0.25,0.4-0.55,0.4C355.43,121.89,355.18,121.71,355.18,121.49z"/>
	<path class="st0" d="M360.61,124.11c-0.23,0.5-0.43,0.88-0.62,1.15c-0.13,0.2-0.28,0.26-0.42,0.28c-0.06,0-0.12,0-0.17-0.02
		c-0.05,0.06-0.11,0.12-0.17,0.17c0,0-0.42,0.41-0.91,0.16c0,0-0.29-0.16-0.31-0.52c-0.01-0.16-0.01-0.36,0.13-0.56
		c0.18-0.26,0.43-0.16,0.68,0.04c0.08-0.28,0.12-0.54,0.12-0.54c0.25-1.63-0.24-1.76-0.24-1.76c-0.54,0.08-0.78,1.2-0.82,1.43
		c-0.13,1.57-0.2,3.17-0.12,4.67c0.01,0.1-0.07,0.17-0.17,0.17c-0.68-0.06-0.72-0.74-0.72-0.74c-0.19-1.43-0.17-4.01-0.11-4.91
		c0.02-0.34,0.13-0.53,0.36-0.68c0.28-0.2,0.58-0.29,0.77-0.32c0.08-0.01,0.17,0.06,0.16,0.14c-0.02,0.16-0.04,0.32-0.06,0.49
		c0.22-0.35,0.55-0.7,1.04-0.64c0.96,0.11,1.15,2.05,0.55,3.13c0.06,0,0.11-0.04,0.16-0.1c0.32-0.37,0.61-0.98,0.68-1.16
		c0.01-0.02,0.05-0.05,0.08-0.04c0.01,0,0.01,0,0.02,0C360.61,123.95,360.65,124.03,360.61,124.11z M358.74,125.04
		c-0.14-0.11-0.34-0.2-0.4-0.12c-0.1,0.13-0.05,0.5,0.19,0.43C358.61,125.33,358.68,125.2,358.74,125.04z"/>
	<path class="st0" d="M361.3,121.49c-0.25,0-0.38,0.32-0.42,0.8c0,0-0.06,0.52,0.29,1.1c0.13,0.22,0.32,0.54,0.53,0.94
		c0.3-0.14,0.61-0.26,0.94-0.35c0.07-0.01,0.13,0.02,0.16,0.1c0.01,0.07-0.02,0.14-0.11,0.17c-0.43,0.1-0.86,0.32-0.86,0.32
		c0.52,1.02,1.01,2.4,0.49,3.49c-0.29,0.71-0.91,0.83-1.12,0.84c-0.3,0.05-0.6-0.01-0.85-0.18c-0.46-0.3-0.62-0.83-0.64-1.35
		c0,0-0.11-1.32,1.12-2.43c-0.46-1.07-0.49-1.79-0.5-1.9c-0.01-0.32,0.02-0.66,0.06-0.83c0.07-0.42,0.34-0.88,0.79-0.91
		c0.52-0.04,0.86,0.53,0.84,0.98c0,0-0.01,0.2-0.18,0.22c-0.28,0.01-0.25-0.47-0.25-0.47S361.59,121.49,361.3,121.49z
		 M359.98,127.58c0.17,1.03,1.02,0.96,1.02,0.96c0.96-0.11,0.56-2-0.06-3.36c-0.16,0.13-0.36,0.35-0.52,0.58
		c-0.22,0.35-0.36,0.72-0.42,1.12C360,126.88,359.94,127.24,359.98,127.58z"/>
	<path class="st0" d="M366.44,124.11c-0.77,1.68-1.3,1.96-1.76,1.67c-0.18-0.11-0.29-0.38-0.33-0.72c-0.18,0.42-0.46,0.77-0.85,0.8
		c-0.17,0.01-0.31-0.04-0.42-0.11c-0.55-0.32-0.58-1.46-0.58-1.46c-0.04-0.49-0.01-0.98,0.06-1.46c0.02-0.19,0.13-0.4,0.3-0.5
		c0.25-0.18,0.5-0.26,0.8-0.25c0.05,0.01,0.1,0.06,0.08,0.11c-0.18,0.97-0.25,1.94-0.18,2.94c0.02,0.18,0.07,0.32,0.17,0.29
		c0.19-0.08,0.38-0.66,0.48-1.08c0.04-0.13,0.06-0.36,0.06-0.42c0.01-0.36,0.04-0.68,0.06-0.89c0.02-0.2,0.12-0.4,0.29-0.53
		c0.18-0.14,0.46-0.29,0.88-0.3c0.05,0,0.1,0.05,0.08,0.1c-0.04,0.52-0.24,2.91-0.11,2.95c0.37-0.36,0.71-1.08,0.79-1.27
		c0.01-0.02,0.05-0.05,0.08-0.04h0.01C366.44,123.95,366.48,124.03,366.44,124.11z"/>
	<path class="st0" d="M368.51,125.47c-0.66,0.04-0.7-0.79-0.7-0.79c-0.06-0.54-0.02-1.04-0.01-1.42c0.05-0.35,0.01-0.47-0.07-0.48
		c-0.22-0.02-0.49,1.18-0.53,1.74c-0.02,0.49-0.04,0.97-0.04,1.29c0,0.1-0.07,0.16-0.16,0.16c-0.62-0.05-0.83-0.7-0.84-1.64
		c-0.04-0.54-0.01-1.12,0.01-1.43c0.02-0.2,0.12-0.38,0.26-0.52c0.18-0.14,0.38-0.31,0.78-0.32c0.06,0,0.1,0.04,0.1,0.1
		c-0.01,0.1-0.02,0.31-0.04,0.61c0.19-0.37,0.48-0.7,0.92-0.7c0.54,0,0.72,0.38,0.78,0.72c0.19-0.38,0.48-0.72,0.92-0.72
		c0.97,0,0.79,1.22,0.79,1.22c-0.07,0.89-0.13,1.91-0.02,1.93c0.36-0.36,0.7-1.08,0.78-1.27c0.01-0.02,0.05-0.05,0.08-0.04
		c0.01,0,0.01,0,0.02,0c0.07,0.02,0.11,0.11,0.07,0.18c-0.77,1.68-1.28,1.94-1.76,1.67c-0.53-0.32-0.42-1.86-0.36-2.51
		c0.05-0.35,0.01-0.47-0.07-0.48c-0.23-0.02-0.52,1.24-0.54,1.77c0,0,0.01,0.08-0.01,0.24C368.88,125.03,368.8,125.45,368.51,125.47
		z"/>
</g>
</svg>
